<?xml version="1.0" encoding="utf-8"?>
<!-- Svg Vector Icons : http://www.onlinewebfonts.com/icon -->
<!DOCTYPE svg PUBLIC "-//W3C//DTD SVG 1.1//EN" "http://www.w3.org/Graphics/SVG/1.1/DTD/svg11.dtd">
<svg version="1.1" xmlns="http://www.w3.org/2000/svg" xmlns:xlink="http://www.w3.org/1999/xlink" x="0px" y="0px" viewBox="0 0 1000 1000" enable-background="new 0 0 1000 1000" xml:space="preserve">
<metadata> Svg Vector Icons : http://www.onlinewebfonts.com/icon </metadata>
<g><path d="M658,557.6c0,0-51.2-25.5-51.2-73.3c0-47.7,51.2-73.5,51.2-73.5C770.5,348,847.7,220.6,847.7,73.2c0-21.6-2-42.6-5.2-63.2h-685c-3.2,20.6-5.2,41.7-5.2,63.2c0,147.4,77.2,274.8,189.7,337.6c0,0,51.5,23.7,51.5,73.5s-51.5,73.3-51.5,73.3c-112.5,62.8-189.7,190.3-189.7,337.6c0,32.8,4.2,64.5,11.4,94.8h672.7c7.2-30.4,11.4-62,11.4-94.8C847.7,747.8,770.5,620.4,658,557.6z M779.7,923.2H220.3c-0.8-9.4-1.2-18.8-1.2-28c0-118,58.8-224.4,153.7-278.3c33.9-16.7,87.5-61.7,87.5-132.6c0-70.9-53.6-116-87.4-132.7c-93.9-53.3-152.5-158.1-153.7-274.7h561.9c-1.2,117.3-60.5,222.7-155.4,275.7c-6.4,3.2-85.5,45.3-85.5,131.8c0,86.6,79.2,128.6,88.2,133.1c93.1,52.1,152.7,159.1,152.7,277.8C780.9,904.4,780.5,913.7,779.7,923.2z M500.2,383.6c-24.9-43.5-63.1-74.8-97.8-91.9c-26.3-15-49.1-36.2-67.5-61.7h329.5c-19.2,26.4-43.3,48.5-71.6,64.2C566.4,307.2,526.5,337.5,500.2,383.6z M650.8,720.6c31.4,35.9,53.4,83.6,60.6,135.7H288.5c7.2-52.1,29-99.2,61.6-135.7H650.8z"/></g>
</svg>